<svg width="200" height="200" viewBox="0 0 200 200" fill="none" xmlns="http://www.w3.org/2000/svg">
<path d="M59.3209 44.5859H34.0419C23.5269 44.5859 15.0029 53.11 15.0029 63.624V150.149C15.0029 160.665 23.5269 169.188 34.0419 169.188H51.8059H138.699C149.214 169.188 157.74 160.665 157.74 150.149V135.755H78.3609C67.8449 135.755 59.3219 127.231 59.3219 116.716L59.3209 44.5859Z" fill="#FB94D9"/>
<path d="M15 138.476V150.15C15 160.666 23.522 169.189 34.038 169.189H51.806H138.699C149.214 169.189 157.738 160.666 157.738 150.15V135.757H78.357C73.753 135.757 69.532 134.124 66.24 131.403C46.733 132.658 29.196 135.131 15 138.476Z" fill="url(#paint0_linear_2866_154)"/>
<path d="M30.87 50.04V136.564C30.87 147.081 39.393 155.604 49.909 155.604H154.567C165.085 155.604 173.607 147.081 173.607 136.564V67.4009H136.828L136.802 65.9712V31H49.909C39.393 31.001 30.87 39.526 30.87 50.04Z" fill="url(#paint1_linear_2866_154)"/>
<path d="M142.151 31.0391L173.163 62.0488H142.151V31.0391Z" fill="#2969D5"/>
<path d="M30.87 135.329V136.564C30.87 147.081 39.393 155.604 49.909 155.604H154.567C164.649 155.604 172.898 147.768 173.567 137.856C152.837 133.266 125.541 130.477 95.637 130.477C71.696 130.478 49.433 132.265 30.87 135.329Z" fill="url(#paint2_linear_2866_154)"/>
<path d="M48.009 56.4189C48.009 55.0339 49.5031 53.9131 51.3391 53.9131H136.769V67.4053H155.626V69.71C155.626 71.095 154.136 72.2183 152.298 72.2183H51.3391C49.5031 72.2183 48.009 71.095 48.009 69.71V56.4189ZM79.596 93.9351L72.247 89.2803L54.0291 99.8198V120.898L72.345 131.507L90.333 120.898V100.416L83.95 96.729L66.661 106.668V115.912L60.511 112.62V104.633L79.596 93.9351ZM49.132 85.2959C49.132 83.9129 50.622 82.7881 52.462 82.7881H92.212C94.05 82.7881 95.538 83.9129 95.538 85.2959V135.134C95.538 136.519 94.05 137.643 92.212 137.643H52.462C50.622 137.643 49.132 136.519 49.132 135.134V85.2959Z" fill="#83E4ED"/>
<path d="M136.86 93.9341L129.51 89.2778L111.291 99.8179V120.897L129.611 131.503L147.596 120.897V100.416L141.218 96.7271L123.925 106.667V115.909L117.774 112.621V104.631L136.86 93.9341ZM106.391 85.2959C106.391 83.9079 107.883 82.7861 109.723 82.7861H149.475C151.313 82.7861 152.802 83.9079 152.802 85.2959V135.134C152.802 136.519 151.313 137.642 149.475 137.642H109.723C107.883 137.642 106.391 136.519 106.391 135.134V85.2959Z" fill="#83E4ED"/>
<path d="M133.694 91.3591C133.329 87.8441 135.737 87.2232 138.518 89.3742C141.297 91.5262 181.104 124.052 183.483 125.976C185.859 127.903 186.067 130.583 182.975 131.132C179.883 131.683 167.987 132.708 167.987 132.708C167.987 132.708 177.905 150.72 178.788 152.651C179.664 154.586 179.722 155.104 177.446 156.319C175.17 157.534 171.567 159.637 169.575 160.671C167.585 161.706 167.204 161.672 166.075 159.464C164.94 157.259 154.497 138.552 154.497 138.552C154.497 138.552 147.546 146.634 145.528 148.872C143.514 151.108 140.171 152.134 139.741 148.056C139.311 143.974 133.694 91.3591 133.694 91.3591Z" fill="#3647D3"/>
<defs>
<linearGradient id="paint0_linear_2866_154" x1="14.9976" y1="150.295" x2="157.735" y2="150.295" gradientUnits="userSpaceOnUse">
<stop stop-color="#DC32A6"/>
<stop offset="1" stop-color="#9F8EC2"/>
</linearGradient>
<linearGradient id="paint1_linear_2866_154" x1="174.128" y1="118.645" x2="28.5527" y2="73.7757" gradientUnits="userSpaceOnUse">
<stop stop-color="#00DBDB"/>
<stop offset="0.5686" stop-color="#3647D3"/>
<stop offset="1" stop-color="#3647D3"/>
</linearGradient>
<linearGradient id="paint2_linear_2866_154" x1="34.0524" y1="120.349" x2="169.37" y2="167.272" gradientUnits="userSpaceOnUse">
<stop stop-color="#1933BE"/>
<stop offset="1" stop-color="#2A9CE2"/>
</linearGradient>
</defs>
</svg>
